PathFileType	4	(X/Y/Z)	F:\MotionCapture\20160217\3\Generated_files\2_Test04-Dynamic.trc
DataRate	CameraRate	NumFrames	NumMarkers	Units	OrigDataRate	OrigDataStartFrame	OrigNumFrames
120.00	120.00	       4	39	mm	120.00	1	       849
Frame#	Time	Top.Head			Front.Head			Rear.Head			R.Shoulder			R.Offset			R.Elbow			R.Wrist			L.Shoulder			L.Elbow			L.Wrist			R.ASIS			L.ASIS			V.Sacral			R.Thigh			R.Knee			R.Shank			R.Ankle			R.Heel			R.Toe			L.Thigh			L.Knee			L.Shank			L.Ankle			L.Heel			L.Toe			R1			R2			R3			R4			R5			R6			R7			L1			L2			L3			L4			L5			L6			L7			V_Mid_ASIS			V_Pelvis_Origin			V_R.Hip_JC			V_L.Hip_JC			V_R.Knee_JC			V_L.Knee_JC			V_R.Ankle_JC			V_L.Ankle_JC			V_Mid_Hip			V_Mid_Shoulder			V_R.Hand			V_L.Hand			V_R.Toe_Offset_Static			V_L.Toe_Offset_Static			V_R.Toe_Offset			V_L.Toe_Offset			
		X1	Y1	Z1	X2	Y2	Z2	X3	Y3	Z3	X4	Y4	Z4	X5	Y5	Z5	X6	Y6	Z6	X7	Y7	Z7	X8	Y8	Z8	X9	Y9	Z9	X10	Y10	Z10	X11	Y11	Z11	X12	Y12	Z12	X13	Y13	Z13	X14	Y14	Z14	X15	Y15	Z15	X16	Y16	Z16	X17	Y17	Z17	X18	Y18	Z18	X19	Y19	Z19	X20	Y20	Z20	X21	Y21	Z21	X22	Y22	Z22	X23	Y23	Z23	X24	Y24	Z24	X25	Y25	Z25	X26	Y26	Z26	X27	Y27	Z27	X28	Y28	Z28	X29	Y29	Z29	X30	Y30	Z30	X31	Y31	Z31	X32	Y32	Z32	X33	Y33	Z33	X34	Y34	Z34	X35	Y35	Z35	X36	Y36	Z36	X37	Y37	Z37	X38	Y38	Z38	X39	Y39	Z39	

1	0.000	2499.00293	137.12363	1742.38708	2370.97461	137.41701	1686.41553	2588.74780	131.38080	1649.56970	2483.93042	334.56244	1428.64368	2605.71948	65.35809	1277.57581	2509.94873	428.40424	1101.61987	2384.12451	420.27182	870.95935	2463.18848	-76.10262	1435.68506	2452.11768	-165.14713	1107.24097	2343.36694	-123.24238	877.07574	2382.79565	279.72849	963.56421	2381.34839	-9.50711	966.58136	2607.24707	134.80499	949.22858	2347.17651	246.37784	581.91528	2427.09473	299.43655	471.12198	2447.25635	230.77345	236.98329	2517.99316	303.84885	74.09961	2586.35571	244.55330	52.01713	2376.88232	292.98953	47.19164	2346.19092	17.87928	632.08081	2448.04907	-28.12813	476.55692	2429.73877	39.44532	332.86102	2516.10986	-21.16831	70.37603	2571.67334	41.85424	50.86148	2377.03711	-39.70832	46.86399	2328.27539	272.20349	43.67798	2370.57275	254.36342	53.14627	2467.88379	218.09294	62.46812	2543.99292	215.70593	51.64714	2557.98804	289.08362	53.62604	2481.28857	316.64310	44.11004	2415.26147	336.16614	41.63701	2324.73804	-23.67774	40.18630	2360.00806	-3.95886	49.62443	2446.54883	55.29970	54.43313	2531.38501	68.61575	50.07639	2550.81299	-0.85972	50.32107	2484.60474	-41.10960	38.40652	2426.39111	-67.06931	42.89010																																																	2894.35840	150.31108	-101.68881	2896.75562	-136.89742	479.89795	1820.47131	-120.40996	740.89819	
2	0.008	2498.30591	137.59888	1742.35803	2370.47705	137.82944	1686.69373	2588.32788	131.70050	1649.80225	2483.42847	334.54810	1428.59216	2605.18091	65.52647	1278.09277	2509.42969	428.66751	1101.69043	2381.68530	418.31845	872.00641	2462.61230	-75.94269	1435.95813	2452.14185	-164.80515	1107.46948	2344.35645	-122.70377	876.84839	2386.27783	279.68970	963.13251	2381.21875	-9.41879	966.21899	2607.43335	134.46249	949.74951	2347.53442	246.53452	581.98792	2427.25049	299.43228	471.15421	2447.33130	230.77579	236.97958	2518.56030	303.55988	73.87715	2586.28125	244.33498	52.21331	2376.96118	293.17184	47.34412	2346.47314	17.47970	631.87878	2447.84058	-28.20218	476.52133	2428.89478	38.88398	332.70813	2516.04248	-21.29195	70.39432	2571.62329	41.81330	50.98791	2377.01587	-39.66388	46.80779	2328.30859	272.19748	43.68375	2370.54883	254.47354	53.17173	2467.80615	218.00793	62.63520	2543.92627	215.55193	51.73995	2557.23975	288.79016	53.50669	2481.19434	316.41925	44.18344	2415.16284	335.99225	41.65322	2324.64038	-23.76290	40.26921	2359.90381	-4.03504	49.57319	2446.44360	55.39023	54.49174	2531.31689	68.55753	50.11594	2550.74829	-0.94356	50.30989	2484.58521	-41.12831	38.45354	2426.38013	-67.12198	42.94173																																																	2918.40454	144.60861	-108.41366	1822.98682	-119.96439	740.31647	2694.81567	108.64165	265.97299	3132.25024	238.09897	-142.43793	
3	0.017	2497.88745	138.08871	1742.65491	2369.89404	138.27383	1686.75232	2587.55005	132.07355	1649.92126	2482.69141	334.93188	1428.81104	2604.60352	65.73414	1278.41589	2508.52246	429.05273	1101.80505	2379.00537	416.67853	872.73889	2461.72583	-75.47808	1436.35205	2451.89136	-164.25217	1107.73877	2345.12354	-122.03179	876.54889	2386.56812	279.65039	963.20978	2380.79688	-8.98354	965.81573	2607.66382	134.23933	950.29474	2347.74219	246.69661	582.06854	2427.45776	299.49249	471.09671	2447.39063	230.74553	237.09027	2517.88403	303.71436	74.11423	2586.20996	244.18019	52.25766	2377.05176	293.21906	47.52659	2346.53540	17.35326	631.74133	2447.79272	-28.21996	476.50586	2428.83716	39.05461	332.88058	2515.98853	-21.38063	70.43147	2571.57837	41.81366	51.03326	2376.92212	-39.71115	46.73355	2328.41211	272.23718	43.66847	2370.51123	254.55646	53.20494	2467.67847	217.94179	62.76678	2543.83374	215.50005	51.70966	2557.26050	288.73404	53.60560	2481.07886	316.48370	44.33688	2415.29321	335.87833	41.79639	2324.56836	-23.79847	40.23970	2359.73291	-4.05372	49.49872	2446.38159	55.26564	54.46516	2531.27466	68.51455	50.15593	2550.69800	-0.99124	50.32594	2484.59668	-41.18698	38.48035	2426.28320	-67.12129	42.75879																																																	2894.50220	150.09476	-100.90273	1824.88391	-119.55404	739.93115	
4	0.025	2497.25146	138.65089	1742.72363	2369.27783	138.63312	1686.85071	2586.82715	132.28085	1650.00964	2481.85742	335.42126	1429.45959	2603.84351	66.03124	1278.76880	2507.29199	429.60452	1101.86536	2376.52124	415.30078	873.91083	2461.02148	-75.27315	1436.80115	2451.63525	-163.76382	1108.42041	2346.20874	-121.53168	876.37921	2381.74243	279.97287	964.42493	2380.61597	-8.52670	965.61273	2607.90332	133.86461	951.02094	2349.14746	247.65697	582.08179	2427.81079	299.56595	471.05447	2447.42773	230.88319	237.20569	2517.78687	303.63071	74.05388	2586.14282	244.09479	52.26513	2377.13892	293.25775	47.64076	2346.44434	17.45769	631.64624	2447.76929	-28.16339	476.52066	2429.49902	39.46530	332.57449	2515.93066	-21.41624	70.43821	2571.56787	41.76499	51.08203	2376.90405	-39.68147	46.70952	2328.53662	272.30072	43.76360	2370.47461	254.61150	53.23778	2467.53418	217.94453	62.87106	2543.84082	215.43701	51.79943	2557.27856	288.70657	53.62196	2481.13062	316.47961	44.59164	2415.29272	335.76031	41.99157	2324.54736	-23.82099	40.23686	2359.66260	-4.13927	49.53851	2446.42651	55.29229	54.48468	2531.29736	68.48112	50.16648	2550.67114	-1.00515	50.33883	2484.51611	-41.11198	38.35193	2426.26929	-67.14200	42.76218																																																	2894.94165	149.99342	-101.08024	1825.61133	-119.43446	739.84338	
